<svg xmlns="http://www.w3.org/2000/svg">
  <symbol id="icon-fb" viewBox="0 0 14 28">
    <path d="M9.53 27.75H2.71V14.85H0V8.47H2.63C2.43 5.58 2.93 3.47 4.15 2.03C4.73171 1.39087 5.44042 0.8802 6.23079 0.530647C7.02116 0.181094 7.87578 0.000357734 8.74 0L13.52 0V6.15H9.76C9.53848 6.90214 9.4538 7.68794 9.51 8.47H13.51V14.85H9.51L9.53 27.75ZM4.22 26.25H8V13.35H12V10H8V9.24C8 7.24 8 5.45 9 4.78L9.19 4.65H12V1.5H8.78C8.12565 1.49154 7.47682 1.62071 6.87559 1.87911C6.27436 2.13752 5.73416 2.5194 5.29 3C4.29 4.23 3.88 6.29 4.19 9.14L4.29 9.97H1.5V13.35H4.22V26.25Z"/>
  </symbol>
  <symbol id="icon-vk" viewBox="0 0 23 13" >
    <path d="M17.7664 12.3656C17.219 12.3534 16.6854 12.1927 16.2232 11.9008C15.7407 11.5765 15.2975 11.1976 14.9026 10.7719C14.5761 10.4473 14.0345 9.90127 13.8268 9.90127C13.619 9.90127 13.4706 10.5801 13.478 11.0597C13.4812 11.3907 13.3564 11.7103 13.1293 11.9525C12.8712 12.1622 12.5561 12.2906 12.2242 12.3214H10.7997C8.75222 12.2766 6.79178 11.4894 5.28708 10.1079C2.55676 7.62134 0.21224 2.86966 0.115789 2.66306C0.0237889 2.49047 -0.0147389 2.29464 0.00506792 2.10029C0.0248747 1.90594 0.102128 1.72179 0.227079 1.57106C0.509857 1.33653 0.867951 1.21084 1.23611 1.2169H4.26321H4.35224C4.6027 1.25324 4.84277 1.3412 5.05708 1.47514C5.25875 1.60962 5.42022 1.79569 5.5245 2.01376C5.8444 2.69484 6.2113 3.35308 6.62256 3.98379C7.5945 5.45947 8.02482 5.79888 8.18063 5.87266C8.35396 5.18076 8.40169 4.46365 8.3216 3.75506C8.3476 3.43234 8.29412 3.10817 8.16579 2.81063C8.00289 2.68105 7.80288 2.60614 7.5945 2.59666L7.05289 2.08755C6.94901 1.60057 7.49063 1.18 7.86902 1.01768C8.62414 0.782381 9.41638 0.687338 10.2061 0.737301H10.7329C11.2686 0.723428 11.8041 0.772965 12.328 0.884869C13.5893 1.15049 13.5448 2.16133 13.4929 3.32712C13.4929 3.66652 13.4558 4.06496 13.4558 4.52242C13.4558 4.63309 13.4558 4.75115 13.4558 4.87658C13.4266 5.19781 13.4492 5.52161 13.5226 5.83577C14.1402 5.3219 14.6604 4.70217 15.0584 4.00593C15.4879 3.34758 15.865 2.65683 16.1861 1.93998V1.93998C16.2839 1.71325 16.4516 1.52324 16.6649 1.39728C16.8782 1.27132 17.1262 1.21592 17.3732 1.23903H20.5487C20.6425 1.23013 20.7369 1.23013 20.8306 1.23903C21.5726 1.23903 22.0103 1.45301 22.1884 1.8662C22.3664 2.27939 22.3145 3.09101 20.4374 5.26763L19.6955 6.10139C19.336 6.4485 19.0264 6.84328 18.7755 7.27456C19.0565 7.59225 19.3754 7.87471 19.7251 8.11569C20.5778 8.75465 21.3283 9.51837 21.951 10.3809C22.097 10.5486 22.1925 10.7538 22.2266 10.9731C22.2608 11.1923 22.2321 11.4167 22.1439 11.6204C21.9884 11.8461 21.7803 12.0311 21.5375 12.1596C21.2946 12.288 21.0241 12.3562 20.749 12.3583L17.9371 12.3952L17.7664 12.3656ZM13.8268 8.79451C14.4945 8.79451 15.0732 9.3774 15.689 9.98981C16.0217 10.351 16.3951 10.6729 16.8019 10.949C17.1096 11.1525 17.4711 11.2604 17.8406 11.2589H17.9148L20.7342 11.222C20.8732 11.2141 21.0094 11.179 21.1348 11.1187L21.0606 11.0006C20.499 10.2395 19.8292 9.56348 19.0722 8.99372C18.1893 8.25588 17.7368 7.9091 17.6848 7.34096C17.6329 6.77283 18.0484 6.27847 18.8793 5.34142L19.6213 4.52242C20.2477 3.88703 20.7618 3.15118 21.1422 2.34579C20.9767 2.33603 20.8107 2.33603 20.6451 2.34579H17.4029C17.3443 2.33276 17.2835 2.33276 17.2248 2.34579C16.8814 3.12897 16.4719 3.88179 16.0006 4.5962C14.5984 6.67691 13.938 6.95729 13.4706 6.95729C13.3257 6.95729 13.183 6.92181 13.0551 6.85399C12.3132 6.43342 12.3132 5.49636 12.3577 4.81755C12.3577 4.70688 12.3577 4.5962 12.3577 4.50028C12.3577 4.02069 12.3577 3.6075 12.3948 3.25333C12.4542 2.01376 12.3948 2.00638 12.1129 1.93998C11.6586 1.85071 11.1958 1.81113 10.7329 1.82192H10.221C9.74988 1.81224 9.27872 1.83691 8.81127 1.89571C8.88207 1.94758 8.94459 2.00977 8.99676 2.08017C9.30278 2.56001 9.4554 3.12082 9.4345 3.68866C9.53095 4.90609 9.47901 6.49245 8.69256 6.87612C8.5533 6.94093 8.40115 6.97372 8.2474 6.97204C7.5574 6.97204 6.87482 6.32274 5.70998 4.56669C5.26298 3.8943 4.86383 3.19164 4.51547 2.46385L4.45611 2.39006C4.38118 2.35208 4.30126 2.32476 4.21869 2.3089H1.25095H1.19901C1.63676 3.20906 3.71418 7.1934 6.03643 9.28148C7.34044 10.4729 9.02994 11.1612 10.7997 11.222H12.1722C12.2422 11.2071 12.3097 11.1823 12.3726 11.1482C12.3726 11.1482 12.3726 11.1482 12.3726 11.0818C12.3726 10.8826 12.3726 9.16343 13.5448 8.86829C13.6356 8.83275 13.7302 8.80798 13.8268 8.79451V8.79451Z"/>
  </symbol>
  <symbol id="icon-ig" viewBox="0 0 18 19" >
    <path d="M12.9602 2.54442C13.8189 2.54629 14.6419 2.88272 15.2491 3.48008C15.8563 4.07744 16.1982 4.88709 16.2002 5.73189V13.5235C16.1982 14.3683 15.8563 15.1779 15.2491 15.7753C14.6419 16.3726 13.8189 16.7091 12.9602 16.7109H5.04015C4.18269 16.7072 3.36153 16.37 2.75588 15.7728C2.15022 15.1756 1.80925 14.367 1.80735 13.5235V5.73189C1.80925 4.88832 2.15022 4.07973 2.75588 3.48257C3.36153 2.88541 4.18269 2.54816 5.04015 2.54442H12.9602ZM12.9602 1.48193H5.04015C3.89442 1.48193 2.79561 1.9297 1.98545 2.72672C1.1753 3.52374 0.720154 4.60473 0.720154 5.73189L0.720154 13.5235C0.720154 14.6506 1.1753 15.7316 1.98545 16.5286C2.79561 17.3257 3.89442 17.7734 5.04015 17.7734H12.9602C14.1059 17.7734 15.2047 17.3257 16.0149 16.5286C16.825 15.7316 17.2802 14.6506 17.2802 13.5235V5.73189C17.2802 4.60473 16.825 3.52374 16.0149 2.72672C15.2047 1.9297 14.1059 1.48193 12.9602 1.48193V1.48193Z"/>
    <path d="M9.00697 6.49603C9.63781 6.49603 10.2545 6.68006 10.779 7.02486C11.3035 7.36965 11.7124 7.85972 11.9538 8.4331C12.1952 9.00647 12.2584 9.63739 12.1353 10.2461C12.0122 10.8548 11.7084 11.4139 11.2624 11.8527C10.8163 12.2916 10.248 12.5904 9.62923 12.7115C9.01051 12.8326 8.36918 12.7704 7.78636 12.5329C7.20354 12.2954 6.70539 11.8932 6.35491 11.3772C6.00443 10.8612 5.81737 10.2545 5.81737 9.63391C5.81642 9.22158 5.89827 8.81312 6.05823 8.43199C6.21818 8.05086 6.45309 7.70458 6.74946 7.41301C7.04583 7.12144 7.39783 6.89035 7.78524 6.73298C8.17265 6.57562 8.58784 6.49509 9.00697 6.49603V6.49603ZM9.00697 5.43354C8.16222 5.43214 7.33602 5.67729 6.63295 6.13798C5.92987 6.59867 5.3815 7.25419 5.05724 8.02158C4.73298 8.78898 4.6474 9.63376 4.81133 10.449C4.97526 11.2643 5.38133 12.0134 5.97816 12.6015C6.57498 13.1897 7.33574 13.5904 8.16416 13.7531C8.99258 13.9157 9.85142 13.8329 10.632 13.5152C11.4126 13.1975 12.0798 12.6591 12.5493 11.9682C13.0188 11.2773 13.2694 10.465 13.2694 9.63391C13.2703 9.08265 13.1608 8.53661 12.947 8.02703C12.7332 7.51746 12.4194 7.05436 12.0235 6.66423C11.6276 6.27409 11.1574 5.96459 10.6398 5.75341C10.1222 5.54224 9.56732 5.43354 9.00697 5.43354Z"/>
    <path d="M13.4282 6.24225C13.9611 6.24225 14.393 5.81729 14.393 5.29309C14.393 4.76889 13.9611 4.34393 13.4282 4.34393C12.8954 4.34393 12.4634 4.76889 12.4634 5.29309C12.4634 5.81729 12.8954 6.24225 13.4282 6.24225Z"/>
  </symbol>
  <symbol id="icon-telephone" viewBox="0 0 19 17" >
    <path fill-rule="evenodd" clip-rule="evenodd" d="M9.49995 1.08594C6.7035 1.08594 3.90033 1.55861 2.88322 2.50071C2.03934 3.2823 1.75804 4.66308 1.66321 5.53732C1.66321 5.53732 1.65015 5.62371 1.65015 5.66087C1.65015 6.0037 1.94445 6.27865 2.30427 6.27865C2.34678 6.27865 3.92002 6.15816 4.86851 6.08404C4.89134 6.08091 4.91434 6.07785 4.93716 6.0717C5.29043 6.06248 5.57505 5.79059 5.57505 5.45392L5.57822 4.23679C5.57822 3.85993 5.90214 3.55716 6.3012 3.55716H12.6987C13.0978 3.55716 13.4218 3.8599 13.4218 4.23679L13.425 5.45392C13.425 5.79059 13.7095 6.06248 14.0628 6.0717C14.0854 6.07789 14.1085 6.08091 14.1315 6.08404C15.0801 6.15812 16.6533 6.27865 16.6957 6.27865C17.0553 6.27865 17.3499 6.0037 17.3499 5.66087C17.3499 5.62371 17.3368 5.53732 17.3368 5.53732C17.2419 4.66308 16.9609 3.28234 16.117 2.50071C15.0996 1.55861 12.2964 1.08594 9.49995 1.08594ZM9.49995 9.11752C8.7771 9.11752 8.19164 9.67043 8.19164 10.3531C8.19164 11.0358 8.7771 11.5887 9.49995 11.5887C10.2228 11.5887 10.8082 11.0358 10.8082 10.3531C10.8082 9.67043 10.2228 9.11752 9.49995 9.11752ZM8.51873 6.33731V5.56506C8.51873 5.13881 8.15236 4.79282 7.70106 4.79282C7.24977 4.79282 6.8834 5.13884 6.8834 5.56506V6.33731L2.47095 10.7887C2.16689 11.0698 1.97713 11.462 1.97713 11.8946V13.1333C1.97713 13.816 2.56264 14.3689 3.28545 14.3689H3.61254V15.1412C3.61254 15.5675 3.97895 15.9134 4.43025 15.9134C4.88154 15.9134 5.24792 15.5675 5.24792 15.1412V14.3689H13.752V15.1412C13.752 15.5675 14.1182 15.9134 14.5697 15.9134C15.021 15.9134 15.3873 15.5675 15.3873 15.1412V14.3689H15.7144C16.4373 14.3689 17.0227 13.816 17.0227 13.1333V11.8946C17.0227 11.462 16.833 11.0698 16.5289 10.7887L12.1166 6.33731V5.56506C12.1166 5.13881 11.7502 4.79282 11.2989 4.79282C10.8476 4.79282 10.4812 5.13884 10.4812 5.56506V6.33731H8.51873ZM9.49995 7.88189C10.9456 7.88189 12.1166 8.98777 12.1166 10.3531C12.1166 11.7185 10.9457 12.8244 9.49995 12.8244C8.05426 12.8244 6.88336 11.7185 6.88336 10.3531C6.88336 8.98774 8.05426 7.88189 9.49995 7.88189Z"/>
  </symbol>
  <symbol id="icon-email" viewBox="0 0 24 25" >
    <path fill-rule="evenodd" clip-rule="evenodd" d="M19.1393 16.4663L14.8089 12.5L19.1393 8.53365L18.5488 7.90264L12.25 13.6719L5.95117 7.90264L5.36066 8.53365L9.69108 12.5L5.36066 16.4663L5.95117 17.0974L10.3308 13.0859L12.25 14.8438L14.1691 13.0859L18.5488 17.0974L19.1393 16.4663ZM4.57593 6.25C3.76692 6.25 3.11108 6.94884 3.11108 7.80786V17.1921C3.11108 18.0525 3.7616 18.75 4.57593 18.75H19.924C20.733 18.75 21.3889 18.0512 21.3889 17.1921V7.80786C21.3889 6.94748 20.7383 6.25 19.924 6.25H4.57593Z"/>
  </symbol>
  <symbol id="icon-email-2" viewBox="0 0 19 17" >
    <path d="M2.0166 3.32528L8.7666 7.55572C8.9934 7.69747 9.2868 7.76467 9.582 7.76467C9.8772 7.76467 10.1706 7.69747 10.3974 7.55572L17.1474 3.32528C17.5875 3.04913 18.0033 1.97498 17.196 1.97498H1.9689C1.1616 1.97498 1.5774 3.04913 2.0166 3.32528ZM17.3517 5.63842L10.3974 9.86677C10.0914 10.0537 9.8772 10.0757 9.582 10.0757C9.2868 10.0757 9.0726 10.0537 8.7666 9.86677C8.4606 9.67987 2.3469 5.94082 1.8474 5.63737C1.4964 5.42317 1.5 5.67412 1.5 5.86732V13.525C1.5 13.966 2.0094 14.575 2.4 14.575H16.8C17.1906 14.575 17.7 13.966 17.7 13.525V5.86837C17.7 5.67517 17.7036 5.42422 17.3517 5.63842Z" />
  </symbol>
  <symbol id="icon-call" viewBox="0 0 19 19" >
    <path d="M9.77429 8.22389C9.77429 8.41289 9.92792 8.56139 10.1157 8.56139C10.5048 8.56139 10.8189 8.87526 10.8189 9.25664C10.8189 9.44226 10.9725 9.59414 11.1603 9.59414C11.348 9.59414 11.5017 9.44226 11.5017 9.25664C11.5017 8.50064 10.8804 7.88639 10.1157 7.88639C9.92792 7.88639 9.77429 8.03827 9.77429 8.22389ZM15.332 9.59414C15.5231 9.59414 15.6733 9.44226 15.6733 9.25664C15.6733 6.22589 13.1813 3.76215 10.1157 3.76215C9.92792 3.76215 9.77429 3.914 9.77429 4.09965C9.77429 4.28527 9.92792 4.43715 10.1157 4.43715C12.8057 4.43715 14.9906 6.60051 14.9906 9.25664C14.9906 9.44226 15.1442 9.59414 15.332 9.59414Z" />
    <path d="M12.9047 9.25661C12.9047 9.44223 13.0583 9.59411 13.2461 9.59411C13.4339 9.59411 13.5875 9.44223 13.5875 9.25661C13.5875 7.36324 12.0308 5.82424 10.1157 5.82424C9.9279 5.82424 9.77427 5.97612 9.77427 6.16174C9.77427 6.35074 9.9279 6.49924 10.1157 6.49924C11.6553 6.49924 12.9047 7.73786 12.9047 9.25661ZM10.1157 1.69998C9.9279 1.69998 9.77427 1.85186 9.77427 2.03748C9.77427 2.22312 9.9279 2.37498 10.1157 2.37498C13.9562 2.37498 17.0798 5.46312 17.0798 9.25661C17.0798 9.44223 17.23 9.59411 17.4212 9.59411C17.6089 9.59411 17.7626 9.44223 17.7626 9.25661C17.7626 5.0885 14.3317 1.69998 10.1157 1.69998ZM13.4509 12.8139L13.0037 13.0535C12.2493 13.4619 11.6622 14.5812 10.7312 13.7375L8.30011 11.3L6.20004 9.25661C5.14495 7.92348 6.32635 7.60623 6.73941 6.85699L6.98179 6.41825C7.25489 5.91873 7.35388 5.35849 7.27196 4.79823C7.19345 4.23799 6.93741 3.72836 6.52775 3.32336C6.02935 2.83062 5.36707 2.56062 4.66042 2.56062C3.95376 2.56062 3.28807 2.83062 2.78964 3.32336L2.61556 3.49886C1.69383 4.41012 1.588 5.97948 2.31514 7.92348C3.0013 9.77973 4.3839 11.7912 6.20004 13.5867C8.96862 16.3239 12.0513 17.9 14.2634 17.9C15.1373 17.9 15.8781 17.6536 16.4039 17.1339L16.5814 16.9584C17.0764 16.469 17.3529 15.8142 17.3563 15.1089C17.3529 14.4204 17.0695 13.7454 16.5814 13.2627C15.7587 12.4494 14.4717 12.2671 13.4509 12.8139Z" />
  </symbol>
  <symbol id="icon-user" viewBox="0 0 14 14">
    <path opacity="0.1" d="M4.375 3.92978C4.375 5.45321 5.55275 6.69294 7 6.69294C8.44725 6.69294 9.625 5.45321 9.625 3.92978C9.625 2.40636 8.44725 1.16663 7 1.16663C5.55275 1.16663 4.375 2.40636 4.375 3.92978ZM11.6667 12.8333H12.25V12.2193C12.25 9.8497 10.4177 7.92101 8.16667 7.92101H5.83333C3.58167 7.92101 1.75 9.8497 1.75 12.2193V12.8333H11.6667Z" />
  </symbol>
  <symbol id="polygon" viewBox="0 0 11 14">
    <path d="M11 7L0.5 13.0622V0.937822L11 7Z"/>
  </symbol>
  <symbol id="icon-avia" viewBox="0 0 14 16">
    <g clip-path="url(#clip0)">
      <path d="M11.3455 0.80197C10.8525 0.934652 10.3572 1.06796 10.1697 1.41714L8.71437 4.48888L1.05839 6.54951L0.738368 7.52899L6.57394 8.04374L5.55374 10.6997L3.33193 11.2977L2.76427 12.3438L4.36059 12.5088L4.53353 13.3556C4.61188 13.6555 4.89628 13.8526 5.14161 13.7865L5.88221 13.5872L6.72106 15.1481L7.28872 14.102L6.76989 11.5616L8.39818 9.33664L11.3954 15.0821L12.0209 14.3191L10.2337 5.56794L11.9945 2.71269C12.1843 2.36289 12.0692 1.79924 11.9535 1.23294C11.8962 0.952437 11.5908 0.735941 11.3455 0.80197Z"/>
    </g>
    <defs>
    <clipPath id="clip0">
      <rect width="14" height="16" fill="white"/>
    </clipPath>
    </defs>
  </symbol>
  <symbol id="icon-auto" viewBox="0 0 18 20">
    <g clip-path="url(#clip0)">
      <path d="M4.34046 13.9485C4.34046 13.5699 4.20185 13.2467 3.92462 12.9788C3.64739 12.711 3.31288 12.5771 2.92106 12.5771C2.52925 12.5771 2.19473 12.711 1.91751 12.9788C1.64028 13.2467 1.50167 13.5699 1.50167 13.9485C1.50167 14.3271 1.64028 14.6503 1.91751 14.9181C2.19473 15.186 2.52925 15.3199 2.92106 15.3199C3.31288 15.3199 3.64739 15.186 3.92462 14.9181C4.20185 14.6503 4.34046 14.3271 4.34046 13.9485ZM15.6956 13.9485C15.6956 13.5699 15.557 13.2467 15.2798 12.9788C15.0025 12.711 14.668 12.5771 14.2762 12.5771C13.8844 12.5771 13.5499 12.711 13.2727 12.9788C12.9954 13.2467 12.8568 13.5699 12.8568 13.9485C12.8568 14.3271 12.9954 14.6503 13.2727 14.9181C13.5499 15.186 13.8844 15.3199 14.2762 15.3199C14.668 15.3199 15.0025 15.186 15.2798 14.9181C15.557 14.6503 15.6956 14.3271 15.6956 13.9485ZM15.1855 9.70563L14.3871 5.59135C14.3501 5.42706 14.267 5.29313 14.1376 5.18956C14.0082 5.08599 13.8585 5.0342 13.6885 5.0342H3.50878C3.33875 5.0342 3.18905 5.08599 3.05968 5.18956C2.9303 5.29313 2.84714 5.42706 2.81017 5.59135L2.01176 9.70563C1.9748 9.91992 2.02655 10.1092 2.16701 10.2735C2.30747 10.4378 2.48859 10.5199 2.71037 10.5199H14.4869C14.7087 10.5199 14.8898 10.4378 15.0303 10.2735C15.1707 10.1092 15.2225 9.91992 15.1855 9.70563ZM12.6794 3.14849C12.6794 3.00563 12.6276 2.88421 12.5242 2.78421C12.4207 2.68421 12.295 2.63421 12.1471 2.63421H5.05015C4.9023 2.63421 4.77663 2.68421 4.67313 2.78421C4.56963 2.88421 4.51788 3.00563 4.51788 3.14849C4.51788 3.29135 4.56963 3.41278 4.67313 3.51278C4.77663 3.61278 4.9023 3.66278 5.05015 3.66278H12.1471C12.295 3.66278 12.4207 3.61278 12.5242 3.51278C12.6276 3.41278 12.6794 3.29135 12.6794 3.14849ZM17.115 10.9163V17.3771H15.6956V18.7485C15.6956 19.1271 15.557 19.4503 15.2798 19.7181C15.0025 19.986 14.668 20.1199 14.2762 20.1199C13.8844 20.1199 13.5499 19.986 13.2727 19.7181C12.9954 19.4503 12.8568 19.1271 12.8568 18.7485V17.3771H4.34046V18.7485C4.34046 19.1271 4.20185 19.4503 3.92462 19.7181C3.64739 19.986 3.31288 20.1199 2.92106 20.1199C2.52925 20.1199 2.19473 19.986 1.91751 19.7181C1.64028 19.4503 1.50167 19.1271 1.50167 18.7485V17.3771H0.0822754V10.9163C0.0822754 10.1163 0.174684 9.31992 0.359501 8.52706L1.50167 3.66278C1.5682 3.10563 1.9286 2.61635 2.58285 2.19492C3.2371 1.77349 4.08726 1.45564 5.13332 1.24135C6.17939 1.02706 7.33449 0.919922 8.59864 0.919922C9.86279 0.919922 11.0179 1.02706 12.064 1.24135C13.11 1.45564 13.9602 1.77349 14.6144 2.19492C15.2687 2.61635 15.6291 3.10563 15.6956 3.66278L16.86 8.52706C17.03 9.25563 17.115 10.0521 17.115 10.9163Z"/>
    </g>
    <defs>
      <clipPath id="clip0">
        <rect width="17.0398" height="19.2" fill="white" transform="translate(0.0795898 0.919922)"/>
      </clipPath>
    </defs>
  </symbol>
  <symbol id="icon-bike" viewBox="0 0 15 17">
    <path d="M10.958 13.9656C10.4441 13.9656 9.94179 13.8131 9.51451 13.5274C9.08722 13.2418 8.75419 12.8357 8.55753 12.3606C8.36087 11.8855 8.30941 11.3627 8.40967 10.8584C8.50992 10.354 8.75739 9.89076 9.12077 9.52715C9.48415 9.16353 9.94712 8.91591 10.4511 8.81558C10.9552 8.71526 11.4776 8.76675 11.9524 8.96354C12.4271 9.16033 12.8329 9.49358 13.1185 9.92114C13.404 10.3487 13.5563 10.8514 13.5563 11.3656C13.5556 12.055 13.2816 12.7158 12.7945 13.2033C12.3074 13.6907 11.6469 13.9649 10.958 13.9656V13.9656ZM10.958 9.66997C10.6229 9.66997 10.2953 9.76942 10.0166 9.95574C9.73794 10.1421 9.52075 10.4069 9.39249 10.7167C9.26423 11.0266 9.23068 11.3675 9.29606 11.6964C9.36144 12.0254 9.52283 12.3275 9.75982 12.5646C9.99681 12.8018 10.2987 12.9633 10.6275 13.0287C10.9562 13.0941 11.2969 13.0605 11.6065 12.9322C11.9162 12.8039 12.1808 12.5865 12.367 12.3077C12.5532 12.0288 12.6526 11.701 12.6526 11.3656C12.6521 10.9161 12.4734 10.4851 12.1557 10.1672C11.838 9.84931 11.4073 9.6705 10.958 9.66997V9.66997Z"/>
    <path d="M3.50205 13.9656C2.98816 13.9656 2.4858 13.8131 2.05851 13.5274C1.63122 13.2418 1.29819 12.8357 1.10153 12.3606C0.904873 11.8855 0.853418 11.3627 0.953674 10.8584C1.05393 10.354 1.30139 9.89076 1.66477 9.52715C2.02815 9.16353 2.49113 8.91591 2.99515 8.81558C3.49917 8.71526 4.0216 8.76675 4.49638 8.96354C4.97116 9.16033 5.37696 9.49358 5.66246 9.92114C5.94797 10.3487 6.10036 10.8514 6.10036 11.3656C6.09961 12.055 5.82562 12.7158 5.3385 13.2033C4.85139 13.6907 4.19094 13.9649 3.50205 13.9656V13.9656ZM3.50205 9.66997C3.1669 9.66997 2.83928 9.76942 2.56061 9.95574C2.28195 10.1421 2.06475 10.4069 1.9365 10.7167C1.80824 11.0266 1.77468 11.3675 1.84007 11.6964C1.90545 12.0254 2.06684 12.3275 2.30383 12.5646C2.54081 12.8018 2.84275 12.9633 3.17146 13.0287C3.50017 13.0941 3.84089 13.0605 4.15053 12.9322C4.46016 12.8039 4.72482 12.5865 4.91102 12.3077C5.09721 12.0288 5.1966 11.701 5.1966 11.3656C5.19607 10.9161 5.01737 10.4851 4.6997 10.1672C4.38202 9.84931 3.95131 9.6705 3.50205 9.66997V9.66997Z"/>
    <path d="M9.03759 4.25003C9.15663 4.25052 9.27457 4.22326 9.38459 4.16983C9.49461 4.11639 9.59453 4.03785 9.67857 3.93874C9.76261 3.83963 9.82911 3.72192 9.87421 3.59241C9.91932 3.46289 9.94214 3.32416 9.94135 3.18421C9.94267 3.04497 9.92036 2.90681 9.87573 2.77783C9.8311 2.64884 9.76504 2.53161 9.68141 2.43299C9.59779 2.33437 9.49828 2.25634 9.38871 2.20346C9.27913 2.15058 9.16169 2.12392 9.04324 2.12503C8.92456 2.1246 8.80697 2.15165 8.69718 2.20464C8.58739 2.25763 8.48755 2.33553 8.40336 2.43388C8.31918 2.53224 8.2523 2.64912 8.20654 2.77786C8.16078 2.90661 8.13703 3.04468 8.13666 3.18421C8.13629 3.32374 8.1593 3.46199 8.20438 3.59107C8.24945 3.72014 8.31571 3.83752 8.39937 3.93649C8.48303 4.03546 8.58245 4.11409 8.69196 4.16788C8.80146 4.22168 8.91891 4.2496 9.03759 4.25003V4.25003Z"/>
    <path d="M10.3805 6.3752H9.14463C9.12435 6.3752 9.10445 6.36879 9.08701 6.35664C9.06957 6.34449 9.05523 6.32704 9.04549 6.30613L8.14908 4.37471C8.08592 4.23117 7.9949 4.10714 7.88339 4.01265C7.77187 3.91816 7.643 3.85586 7.50721 3.83081C7.37141 3.80575 7.2325 3.81864 7.10173 3.86842C6.97096 3.91821 6.85199 4.0035 6.75447 4.11738L4.78145 6.45488C4.6157 6.65378 4.52161 6.9202 4.5188 7.19863C4.5188 7.77637 4.87465 7.98223 5.04128 8.09844C5.84619 8.64363 6.41302 9.0424 6.72397 9.26387C6.7405 9.2757 6.75417 9.29233 6.76366 9.31215C6.77316 9.33198 6.77816 9.35434 6.77819 9.37709V11.6721C6.77819 11.958 6.96516 12.2033 7.20832 12.2176C7.26938 12.2211 7.33039 12.2099 7.38767 12.1849C7.44496 12.1598 7.49732 12.1214 7.5416 12.0718C7.58587 12.0223 7.62114 11.9627 7.64526 11.8967C7.66939 11.8306 7.68187 11.7596 7.68195 11.6877V8.83223C7.68199 8.74789 7.66495 8.66476 7.63225 8.5897C7.59954 8.51464 7.5521 8.44982 7.49386 8.40059L6.44889 7.51705C6.43577 7.50602 6.42481 7.49181 6.41676 7.47538C6.4087 7.45896 6.40373 7.44069 6.40218 7.42182C6.40063 7.40295 6.40253 7.3839 6.40776 7.36596C6.41299 7.34803 6.42143 7.33162 6.43251 7.31783L7.61869 5.83067C7.63085 5.81537 7.64592 5.80366 7.66266 5.79651C7.6794 5.78936 7.69734 5.78697 7.71502 5.78953C7.7327 5.79209 7.74962 5.79952 7.76439 5.81123C7.77916 5.82294 7.79136 5.83859 7.8 5.8569L8.41625 7.16444C8.45542 7.24732 8.51274 7.31637 8.58227 7.36443C8.6518 7.41248 8.731 7.43778 8.81165 7.4377H10.3932C10.4544 7.43778 10.515 7.42324 10.5713 7.39496C10.6276 7.36668 10.6784 7.32524 10.7207 7.27317C10.7629 7.2211 10.7958 7.15948 10.8172 7.09204C10.8385 7.02461 10.848 6.95277 10.8451 6.88088C10.8332 6.595 10.6237 6.3752 10.3805 6.3752Z"/>
  </symbol>
  <symbol id="icon-hike" viewBox="0 0 14 17">
    <path d="M9.31134 4.25008C9.91635 4.25008 10.4068 3.61582 10.4068 2.83341C10.4068 2.05101 9.91635 1.41675 9.31134 1.41675C8.70634 1.41675 8.21588 2.05101 8.21588 2.83341C8.21588 3.61582 8.70634 4.25008 9.31134 4.25008Z"/>
    <path d="M8.64155 7.76969C8.76729 8.01199 8.94764 8.19839 9.15812 8.30356C9.3686 8.40874 9.59901 8.42761 9.81807 8.3576L11.6343 7.77039L11.3698 6.39623L9.55352 6.98344L8.7982 5.51931C8.63682 5.20663 8.38637 4.98917 8.10148 4.91439L5.99491 4.36898C5.75924 4.30781 5.51456 4.34869 5.29865 4.48529C5.08274 4.62189 4.90761 4.84662 4.80031 5.12477L3.89217 7.4736L4.87206 8.10756L5.7802 5.75802L6.85759 6.0371L4.07183 12.0416H1.64319V13.4583H4.07183C4.45414 13.4583 4.814 13.1948 5.01119 12.7705L6.06173 10.5067L8.89295 11.2391L9.88763 15.0988L10.9261 14.6504L9.932 10.7914C9.87065 10.5545 9.7621 10.3427 9.61728 10.1773C9.47246 10.0119 9.2965 9.89879 9.10712 9.84935L7.44256 9.41939L8.41314 7.32698L8.64155 7.76969V7.76969Z"/>
</symbol>

</svg>
