<svg xmlns="http://www.w3.org/2000/svg">
  <symbol id="icon-fb" viewBox="0 0 14 28">
    <path d="M9.53 27.75H2.71V14.85H0V8.47H2.63C2.43 5.58 2.93 3.47 4.15 2.03C4.73171 1.39087 5.44042 0.8802 6.23079 0.530647C7.02116 0.181094 7.87578 0.000357734 8.74 0L13.52 0V6.15H9.76C9.53848 6.90214 9.4538 7.68794 9.51 8.47H13.51V14.85H9.51L9.53 27.75ZM4.22 26.25H8V13.35H12V10H8V9.24C8 7.24 8 5.45 9 4.78L9.19 4.65H12V1.5H8.78C8.12565 1.49154 7.47682 1.62071 6.87559 1.87911C6.27436 2.13752 5.73416 2.5194 5.29 3C4.29 4.23 3.88 6.29 4.19 9.14L4.29 9.97H1.5V13.35H4.22V26.25Z"/>
  </symbol>
  <symbol id="icon-vk" viewBox="0 0 23 13" >
    <path d="M17.7664 12.3656C17.219 12.3534 16.6854 12.1927 16.2232 11.9008C15.7407 11.5765 15.2975 11.1976 14.9026 10.7719C14.5761 10.4473 14.0345 9.90127 13.8268 9.90127C13.619 9.90127 13.4706 10.5801 13.478 11.0597C13.4812 11.3907 13.3564 11.7103 13.1293 11.9525C12.8712 12.1622 12.5561 12.2906 12.2242 12.3214H10.7997C8.75222 12.2766 6.79178 11.4894 5.28708 10.1079C2.55676 7.62134 0.21224 2.86966 0.115789 2.66306C0.0237889 2.49047 -0.0147389 2.29464 0.00506792 2.10029C0.0248747 1.90594 0.102128 1.72179 0.227079 1.57106C0.509857 1.33653 0.867951 1.21084 1.23611 1.2169H4.26321H4.35224C4.6027 1.25324 4.84277 1.3412 5.05708 1.47514C5.25875 1.60962 5.42022 1.79569 5.5245 2.01376C5.8444 2.69484 6.2113 3.35308 6.62256 3.98379C7.5945 5.45947 8.02482 5.79888 8.18063 5.87266C8.35396 5.18076 8.40169 4.46365 8.3216 3.75506C8.3476 3.43234 8.29412 3.10817 8.16579 2.81063C8.00289 2.68105 7.80288 2.60614 7.5945 2.59666L7.05289 2.08755C6.94901 1.60057 7.49063 1.18 7.86902 1.01768C8.62414 0.782381 9.41638 0.687338 10.2061 0.737301H10.7329C11.2686 0.723428 11.8041 0.772965 12.328 0.884869C13.5893 1.15049 13.5448 2.16133 13.4929 3.32712C13.4929 3.66652 13.4558 4.06496 13.4558 4.52242C13.4558 4.63309 13.4558 4.75115 13.4558 4.87658C13.4266 5.19781 13.4492 5.52161 13.5226 5.83577C14.1402 5.3219 14.6604 4.70217 15.0584 4.00593C15.4879 3.34758 15.865 2.65683 16.1861 1.93998V1.93998C16.2839 1.71325 16.4516 1.52324 16.6649 1.39728C16.8782 1.27132 17.1262 1.21592 17.3732 1.23903H20.5487C20.6425 1.23013 20.7369 1.23013 20.8306 1.23903C21.5726 1.23903 22.0103 1.45301 22.1884 1.8662C22.3664 2.27939 22.3145 3.09101 20.4374 5.26763L19.6955 6.10139C19.336 6.4485 19.0264 6.84328 18.7755 7.27456C19.0565 7.59225 19.3754 7.87471 19.7251 8.11569C20.5778 8.75465 21.3283 9.51837 21.951 10.3809C22.097 10.5486 22.1925 10.7538 22.2266 10.9731C22.2608 11.1923 22.2321 11.4167 22.1439 11.6204C21.9884 11.8461 21.7803 12.0311 21.5375 12.1596C21.2946 12.288 21.0241 12.3562 20.749 12.3583L17.9371 12.3952L17.7664 12.3656ZM13.8268 8.79451C14.4945 8.79451 15.0732 9.3774 15.689 9.98981C16.0217 10.351 16.3951 10.6729 16.8019 10.949C17.1096 11.1525 17.4711 11.2604 17.8406 11.2589H17.9148L20.7342 11.222C20.8732 11.2141 21.0094 11.179 21.1348 11.1187L21.0606 11.0006C20.499 10.2395 19.8292 9.56348 19.0722 8.99372C18.1893 8.25588 17.7368 7.9091 17.6848 7.34096C17.6329 6.77283 18.0484 6.27847 18.8793 5.34142L19.6213 4.52242C20.2477 3.88703 20.7618 3.15118 21.1422 2.34579C20.9767 2.33603 20.8107 2.33603 20.6451 2.34579H17.4029C17.3443 2.33276 17.2835 2.33276 17.2248 2.34579C16.8814 3.12897 16.4719 3.88179 16.0006 4.5962C14.5984 6.67691 13.938 6.95729 13.4706 6.95729C13.3257 6.95729 13.183 6.92181 13.0551 6.85399C12.3132 6.43342 12.3132 5.49636 12.3577 4.81755C12.3577 4.70688 12.3577 4.5962 12.3577 4.50028C12.3577 4.02069 12.3577 3.6075 12.3948 3.25333C12.4542 2.01376 12.3948 2.00638 12.1129 1.93998C11.6586 1.85071 11.1958 1.81113 10.7329 1.82192H10.221C9.74988 1.81224 9.27872 1.83691 8.81127 1.89571C8.88207 1.94758 8.94459 2.00977 8.99676 2.08017C9.30278 2.56001 9.4554 3.12082 9.4345 3.68866C9.53095 4.90609 9.47901 6.49245 8.69256 6.87612C8.5533 6.94093 8.40115 6.97372 8.2474 6.97204C7.5574 6.97204 6.87482 6.32274 5.70998 4.56669C5.26298 3.8943 4.86383 3.19164 4.51547 2.46385L4.45611 2.39006C4.38118 2.35208 4.30126 2.32476 4.21869 2.3089H1.25095H1.19901C1.63676 3.20906 3.71418 7.1934 6.03643 9.28148C7.34044 10.4729 9.02994 11.1612 10.7997 11.222H12.1722C12.2422 11.2071 12.3097 11.1823 12.3726 11.1482C12.3726 11.1482 12.3726 11.1482 12.3726 11.0818C12.3726 10.8826 12.3726 9.16343 13.5448 8.86829C13.6356 8.83275 13.7302 8.80798 13.8268 8.79451V8.79451Z"/>
  </symbol>
  <symbol id="icon-ig" viewBox="0 0 18 19" >
    <path d="M12.9602 2.54442C13.8189 2.54629 14.6419 2.88272 15.2491 3.48008C15.8563 4.07744 16.1982 4.88709 16.2002 5.73189V13.5235C16.1982 14.3683 15.8563 15.1779 15.2491 15.7753C14.6419 16.3726 13.8189 16.7091 12.9602 16.7109H5.04015C4.18269 16.7072 3.36153 16.37 2.75588 15.7728C2.15022 15.1756 1.80925 14.367 1.80735 13.5235V5.73189C1.80925 4.88832 2.15022 4.07973 2.75588 3.48257C3.36153 2.88541 4.18269 2.54816 5.04015 2.54442H12.9602ZM12.9602 1.48193H5.04015C3.89442 1.48193 2.79561 1.9297 1.98545 2.72672C1.1753 3.52374 0.720154 4.60473 0.720154 5.73189L0.720154 13.5235C0.720154 14.6506 1.1753 15.7316 1.98545 16.5286C2.79561 17.3257 3.89442 17.7734 5.04015 17.7734H12.9602C14.1059 17.7734 15.2047 17.3257 16.0149 16.5286C16.825 15.7316 17.2802 14.6506 17.2802 13.5235V5.73189C17.2802 4.60473 16.825 3.52374 16.0149 2.72672C15.2047 1.9297 14.1059 1.48193 12.9602 1.48193V1.48193Z"/>
    <path d="M9.00697 6.49603C9.63781 6.49603 10.2545 6.68006 10.779 7.02486C11.3035 7.36965 11.7124 7.85972 11.9538 8.4331C12.1952 9.00647 12.2584 9.63739 12.1353 10.2461C12.0122 10.8548 11.7084 11.4139 11.2624 11.8527C10.8163 12.2916 10.248 12.5904 9.62923 12.7115C9.01051 12.8326 8.36918 12.7704 7.78636 12.5329C7.20354 12.2954 6.70539 11.8932 6.35491 11.3772C6.00443 10.8612 5.81737 10.2545 5.81737 9.63391C5.81642 9.22158 5.89827 8.81312 6.05823 8.43199C6.21818 8.05086 6.45309 7.70458 6.74946 7.41301C7.04583 7.12144 7.39783 6.89035 7.78524 6.73298C8.17265 6.57562 8.58784 6.49509 9.00697 6.49603V6.49603ZM9.00697 5.43354C8.16222 5.43214 7.33602 5.67729 6.63295 6.13798C5.92987 6.59867 5.3815 7.25419 5.05724 8.02158C4.73298 8.78898 4.6474 9.63376 4.81133 10.449C4.97526 11.2643 5.38133 12.0134 5.97816 12.6015C6.57498 13.1897 7.33574 13.5904 8.16416 13.7531C8.99258 13.9157 9.85142 13.8329 10.632 13.5152C11.4126 13.1975 12.0798 12.6591 12.5493 11.9682C13.0188 11.2773 13.2694 10.465 13.2694 9.63391C13.2703 9.08265 13.1608 8.53661 12.947 8.02703C12.7332 7.51746 12.4194 7.05436 12.0235 6.66423C11.6276 6.27409 11.1574 5.96459 10.6398 5.75341C10.1222 5.54224 9.56732 5.43354 9.00697 5.43354Z"/>
    <path d="M13.4282 6.24225C13.9611 6.24225 14.393 5.81729 14.393 5.29309C14.393 4.76889 13.9611 4.34393 13.4282 4.34393C12.8954 4.34393 12.4634 4.76889 12.4634 5.29309C12.4634 5.81729 12.8954 6.24225 13.4282 6.24225Z"/>
  </symbol>
  <symbol id="icon-telephone" viewBox="0 0 19 17" >
    <path fill-rule="evenodd" clip-rule="evenodd" d="M9.49995 1.08594C6.7035 1.08594 3.90033 1.55861 2.88322 2.50071C2.03934 3.2823 1.75804 4.66308 1.66321 5.53732C1.66321 5.53732 1.65015 5.62371 1.65015 5.66087C1.65015 6.0037 1.94445 6.27865 2.30427 6.27865C2.34678 6.27865 3.92002 6.15816 4.86851 6.08404C4.89134 6.08091 4.91434 6.07785 4.93716 6.0717C5.29043 6.06248 5.57505 5.79059 5.57505 5.45392L5.57822 4.23679C5.57822 3.85993 5.90214 3.55716 6.3012 3.55716H12.6987C13.0978 3.55716 13.4218 3.8599 13.4218 4.23679L13.425 5.45392C13.425 5.79059 13.7095 6.06248 14.0628 6.0717C14.0854 6.07789 14.1085 6.08091 14.1315 6.08404C15.0801 6.15812 16.6533 6.27865 16.6957 6.27865C17.0553 6.27865 17.3499 6.0037 17.3499 5.66087C17.3499 5.62371 17.3368 5.53732 17.3368 5.53732C17.2419 4.66308 16.9609 3.28234 16.117 2.50071C15.0996 1.55861 12.2964 1.08594 9.49995 1.08594ZM9.49995 9.11752C8.7771 9.11752 8.19164 9.67043 8.19164 10.3531C8.19164 11.0358 8.7771 11.5887 9.49995 11.5887C10.2228 11.5887 10.8082 11.0358 10.8082 10.3531C10.8082 9.67043 10.2228 9.11752 9.49995 9.11752ZM8.51873 6.33731V5.56506C8.51873 5.13881 8.15236 4.79282 7.70106 4.79282C7.24977 4.79282 6.8834 5.13884 6.8834 5.56506V6.33731L2.47095 10.7887C2.16689 11.0698 1.97713 11.462 1.97713 11.8946V13.1333C1.97713 13.816 2.56264 14.3689 3.28545 14.3689H3.61254V15.1412C3.61254 15.5675 3.97895 15.9134 4.43025 15.9134C4.88154 15.9134 5.24792 15.5675 5.24792 15.1412V14.3689H13.752V15.1412C13.752 15.5675 14.1182 15.9134 14.5697 15.9134C15.021 15.9134 15.3873 15.5675 15.3873 15.1412V14.3689H15.7144C16.4373 14.3689 17.0227 13.816 17.0227 13.1333V11.8946C17.0227 11.462 16.833 11.0698 16.5289 10.7887L12.1166 6.33731V5.56506C12.1166 5.13881 11.7502 4.79282 11.2989 4.79282C10.8476 4.79282 10.4812 5.13884 10.4812 5.56506V6.33731H8.51873ZM9.49995 7.88189C10.9456 7.88189 12.1166 8.98777 12.1166 10.3531C12.1166 11.7185 10.9457 12.8244 9.49995 12.8244C8.05426 12.8244 6.88336 11.7185 6.88336 10.3531C6.88336 8.98774 8.05426 7.88189 9.49995 7.88189Z"/>
  </symbol>
  <symbol id="icon-email" viewBox="0 0 24 25" >
    <path fill-rule="evenodd" clip-rule="evenodd" d="M19.1393 16.4663L14.8089 12.5L19.1393 8.53365L18.5488 7.90264L12.25 13.6719L5.95117 7.90264L5.36066 8.53365L9.69108 12.5L5.36066 16.4663L5.95117 17.0974L10.3308 13.0859L12.25 14.8438L14.1691 13.0859L18.5488 17.0974L19.1393 16.4663ZM4.57593 6.25C3.76692 6.25 3.11108 6.94884 3.11108 7.80786V17.1921C3.11108 18.0525 3.7616 18.75 4.57593 18.75H19.924C20.733 18.75 21.3889 18.0512 21.3889 17.1921V7.80786C21.3889 6.94748 20.7383 6.25 19.924 6.25H4.57593Z"/>
  </symbol>
  <symbol id="icon-email-2" viewBox="0 0 19 17" >
    <path d="M2.0166 3.32528L8.7666 7.55572C8.9934 7.69747 9.2868 7.76467 9.582 7.76467C9.8772 7.76467 10.1706 7.69747 10.3974 7.55572L17.1474 3.32528C17.5875 3.04913 18.0033 1.97498 17.196 1.97498H1.9689C1.1616 1.97498 1.5774 3.04913 2.0166 3.32528ZM17.3517 5.63842L10.3974 9.86677C10.0914 10.0537 9.8772 10.0757 9.582 10.0757C9.2868 10.0757 9.0726 10.0537 8.7666 9.86677C8.4606 9.67987 2.3469 5.94082 1.8474 5.63737C1.4964 5.42317 1.5 5.67412 1.5 5.86732V13.525C1.5 13.966 2.0094 14.575 2.4 14.575H16.8C17.1906 14.575 17.7 13.966 17.7 13.525V5.86837C17.7 5.67517 17.7036 5.42422 17.3517 5.63842Z" />
  </symbol>
  <symbol id="icon-call" viewBox="0 0 19 19" >
    <path d="M9.77429 8.22389C9.77429 8.41289 9.92792 8.56139 10.1157 8.56139C10.5048 8.56139 10.8189 8.87526 10.8189 9.25664C10.8189 9.44226 10.9725 9.59414 11.1603 9.59414C11.348 9.59414 11.5017 9.44226 11.5017 9.25664C11.5017 8.50064 10.8804 7.88639 10.1157 7.88639C9.92792 7.88639 9.77429 8.03827 9.77429 8.22389ZM15.332 9.59414C15.5231 9.59414 15.6733 9.44226 15.6733 9.25664C15.6733 6.22589 13.1813 3.76215 10.1157 3.76215C9.92792 3.76215 9.77429 3.914 9.77429 4.09965C9.77429 4.28527 9.92792 4.43715 10.1157 4.43715C12.8057 4.43715 14.9906 6.60051 14.9906 9.25664C14.9906 9.44226 15.1442 9.59414 15.332 9.59414Z" />
    <path d="M12.9047 9.25661C12.9047 9.44223 13.0583 9.59411 13.2461 9.59411C13.4339 9.59411 13.5875 9.44223 13.5875 9.25661C13.5875 7.36324 12.0308 5.82424 10.1157 5.82424C9.9279 5.82424 9.77427 5.97612 9.77427 6.16174C9.77427 6.35074 9.9279 6.49924 10.1157 6.49924C11.6553 6.49924 12.9047 7.73786 12.9047 9.25661ZM10.1157 1.69998C9.9279 1.69998 9.77427 1.85186 9.77427 2.03748C9.77427 2.22312 9.9279 2.37498 10.1157 2.37498C13.9562 2.37498 17.0798 5.46312 17.0798 9.25661C17.0798 9.44223 17.23 9.59411 17.4212 9.59411C17.6089 9.59411 17.7626 9.44223 17.7626 9.25661C17.7626 5.0885 14.3317 1.69998 10.1157 1.69998ZM13.4509 12.8139L13.0037 13.0535C12.2493 13.4619 11.6622 14.5812 10.7312 13.7375L8.30011 11.3L6.20004 9.25661C5.14495 7.92348 6.32635 7.60623 6.73941 6.85699L6.98179 6.41825C7.25489 5.91873 7.35388 5.35849 7.27196 4.79823C7.19345 4.23799 6.93741 3.72836 6.52775 3.32336C6.02935 2.83062 5.36707 2.56062 4.66042 2.56062C3.95376 2.56062 3.28807 2.83062 2.78964 3.32336L2.61556 3.49886C1.69383 4.41012 1.588 5.97948 2.31514 7.92348C3.0013 9.77973 4.3839 11.7912 6.20004 13.5867C8.96862 16.3239 12.0513 17.9 14.2634 17.9C15.1373 17.9 15.8781 17.6536 16.4039 17.1339L16.5814 16.9584C17.0764 16.469 17.3529 15.8142 17.3563 15.1089C17.3529 14.4204 17.0695 13.7454 16.5814 13.2627C15.7587 12.4494 14.4717 12.2671 13.4509 12.8139Z" />
  </symbol>
</svg>
